0
SECTION
2
ENTITIES
0
LINE
8
CUT
10
-75.0000
20
-55.0000
30
0.0
11
40.0000
21
-55.0000
31
0.0
0
LINE
8
CUT
10
40.0000
20
-55.0000
30
0.0
11
40.0000
21
95.0000
31
0.0
0
LINE
8
CUT
10
40.0000
20
95.0000
30
0.0
11
-75.0000
21
95.0000
31
0.0
0
LINE
8
CUT
10
-75.0000
20
95.0000
30
0.0
11
-75.0000
21
-55.0000
31
0.0
0
LINE
8
CUT
10
16.9500
20
-20.0000
30
0.0
11
23.1500
21
-20.0000
31
0.0
0
LINE
8
CUT
10
23.1500
20
-20.0000
30
0.0
11
23.1500
21
0.0000
31
0.0
0
LINE
8
CUT
10
23.1500
20
0.0000
30
0.0
11
16.9500
21
0.0000
31
0.0
0
LINE
8
CUT
10
16.9500
20
0.0000
30
0.0
11
16.9500
21
-20.0000
31
0.0
0
LINE
8
CUT
10
16.9500
20
40.0000
30
0.0
11
23.1500
21
40.0000
31
0.0
0
LINE
8
CUT
10
23.1500
20
40.0000
30
0.0
11
23.1500
21
60.0000
31
0.0
0
LINE
8
CUT
10
23.1500
20
60.0000
30
0.0
11
16.9500
21
60.0000
31
0.0
0
LINE
8
CUT
10
16.9500
20
60.0000
30
0.0
11
16.9500
21
40.0000
31
0.0
0
LINE
8
SCRIBE
10
-5.0500
20
-30.0000
30
0.0
11
5.0500
21
-30.0000
31
0.0
0
LINE
8
SCRIBE
10
5.0500
20
-30.0000
30
0.0
11
5.0500
21
30.0000
31
0.0
0
LINE
8
SCRIBE
10
5.0500
20
30.0000
30
0.0
11
-5.0500
21
30.0000
31
0.0
0
LINE
8
SCRIBE
10
-5.0500
20
30.0000
30
0.0
11
-5.0500
21
-30.0000
31
0.0
0
TEXT
8
SCRIBE
10
-4.0500
20
32.0000
30
0.0
40
2.500
1
RAIL FOOTPRINT
0
TEXT
8
SCRIBE
10
-59.0000
20
87.0000
30
0.0
40
4.000
1
RIG BASE 6mm
0
LINE
8
SCRIBE
10
-20.0000
20
-13.0000
30
0.0
11
-45.0000
21
-13.0000
31
0.0
0
LINE
8
SCRIBE
10
-45.0000
20
-13.0000
30
0.0
11
-45.0000
21
13.0000
31
0.0
0
LINE
8
SCRIBE
10
-45.0000
20
13.0000
30
0.0
11
-20.0000
21
13.0000
31
0.0
0
LINE
8
SCRIBE
10
-20.0000
20
13.0000
30
0.0
11
-20.0000
21
-13.0000
31
0.0
0
TEXT
8
SCRIBE
10
-40.5000
20
-1.0000
30
0.0
40
2.500
1
VBLOCK CHORD
0
LINE
8
SCRIBE
10
-39.3810
20
16.0743
30
0.0
11
-58.5321
21
32.1440
31
0.0
0
LINE
8
SCRIBE
10
-58.5321
20
32.1440
30
0.0
11
-41.8197
21
52.0612
31
0.0
0
LINE
8
SCRIBE
10
-41.8197
20
52.0612
30
0.0
11
-22.6686
21
35.9915
31
0.0
0
LINE
8
SCRIBE
10
-22.6686
20
35.9915
30
0.0
11
-39.3810
21
16.0743
31
0.0
0
TEXT
8
SCRIBE
10
-48.6004
20
33.0677
30
0.0
40
2.500
1
VBLOCK DIAG
0
CIRCLE
8
CUT
10
-65.0000
20
-45.0000
30
0.0
40
2.2000
0
CIRCLE
8
CUT
10
-65.0000
20
85.0000
30
0.0
40
2.2000
0
CIRCLE
8
CUT
10
30.0000
20
-45.0000
30
0.0
40
2.2000
0
CIRCLE
8
CUT
10
30.0000
20
85.0000
30
0.0
40
2.2000
0
ENDSEC
0
EOF
