0
SECTION
2
ENTITIES
0
LINE
8
CUT
10
80.0000
20
65.0000
30
0.0
11
80.0000
21
-45.0000
31
0.0
0
LINE
8
CUT
10
80.0000
20
-45.0000
30
0.0
11
60.0000
21
-45.0000
31
0.0
0
LINE
8
CUT
10
60.0000
20
-45.0000
30
0.0
11
60.0000
21
-53.0000
31
0.0
0
LINE
8
CUT
10
60.0000
20
-53.0000
30
0.0
11
40.0000
21
-53.0000
31
0.0
0
LINE
8
CUT
10
40.0000
20
-53.0000
30
0.0
11
40.0000
21
-45.0000
31
0.0
0
LINE
8
CUT
10
40.0000
20
-45.0000
30
0.0
11
0.0000
21
-45.0000
31
0.0
0
LINE
8
CUT
10
0.0000
20
-45.0000
30
0.0
11
0.0000
21
-53.0000
31
0.0
0
LINE
8
CUT
10
0.0000
20
-53.0000
30
0.0
11
-20.0000
21
-53.0000
31
0.0
0
LINE
8
CUT
10
-20.0000
20
-53.0000
30
0.0
11
-20.0000
21
-45.0000
31
0.0
0
LINE
8
CUT
10
-20.0000
20
-45.0000
30
0.0
11
-40.0000
21
-45.0000
31
0.0
0
LINE
8
CUT
10
-40.0000
20
-45.0000
30
0.0
11
-40.0000
21
65.0000
31
0.0
0
LINE
8
CUT
10
-40.0000
20
65.0000
30
0.0
11
80.0000
21
65.0000
31
0.0
0
LINE
8
CUT
10
0.0000
20
7.0000
30
0.0
11
-40.0000
21
7.0000
31
0.0
0
LINE
8
CUT
10
0.0000
20
-7.0000
30
0.0
11
-40.0000
21
-7.0000
31
0.0
0
ARC
8
CUT
10
0.0000
20
0.0000
30
0.0
40
7.0000
50
-90.0000
51
90.0000
0
CIRCLE
8
CUT
10
24.1344
20
-10.7000
30
0.0
40
1.4750
0
CIRCLE
8
CUT
10
0.0000
20
26.4000
30
0.0
40
1.4750
0
CIRCLE
8
CUT
10
-24.1344
20
-10.7000
30
0.0
40
1.4750
0
CIRCLE
8
CUT
10
26.4736
20
1.6503
30
0.0
40
1.7000
0
CIRCLE
8
CUT
10
12.4253
20
23.4347
30
0.0
40
1.7000
0
CIRCLE
8
CUT
10
-12.2385
20
23.5329
30
0.0
40
1.7000
0
CIRCLE
8
CUT
10
-24.9217
20
9.0821
30
0.0
40
1.7000
0
CIRCLE
8
CUT
10
-16.5768
20
-20.7071
30
0.0
40
1.7000
0
CIRCLE
8
CUT
10
16.6006
20
-20.6881
30
0.0
40
1.7000
0
LINE
8
CUT
10
33.0955
20
5.0378
30
0.0
11
43.1595
21
11.5735
31
0.0
0
LINE
8
CUT
10
34.9472
20
2.1864
30
0.0
11
45.0113
21
8.7220
31
0.0
0
ARC
8
CUT
10
34.0214
20
3.6121
30
0.0
40
1.7000
50
123.0000
51
-57.0000
0
ARC
8
CUT
10
44.0854
20
10.1478
30
0.0
40
1.7000
50
-57.0000
51
123.0000
0
LINE
8
CUT
10
16.2117
20
31.0366
30
0.0
11
26.2757
21
37.5723
31
0.0
0
LINE
8
CUT
10
18.0634
20
28.1851
30
0.0
11
28.1275
21
34.7208
31
0.0
0
ARC
8
CUT
10
17.1375
20
29.6109
30
0.0
40
1.7000
50
123.0000
51
-57.0000
0
ARC
8
CUT
10
27.2016
20
36.1466
30
0.0
40
1.7000
50
-57.0000
51
123.0000
0
LINE
8
CUT
10
59.0943
20
21.9216
30
0.0
11
69.1583
21
28.4573
31
0.0
0
LINE
8
CUT
10
60.9460
20
19.0702
30
0.0
11
71.0101
21
25.6058
31
0.0
0
ARC
8
CUT
10
60.0201
20
20.4959
30
0.0
40
1.7000
50
123.0000
51
-57.0000
0
ARC
8
CUT
10
70.0842
20
27.0316
30
0.0
40
1.7000
50
-57.0000
51
123.0000
0
LINE
8
CUT
10
42.2104
20
47.9204
30
0.0
11
52.2745
21
54.4561
31
0.0
0
LINE
8
CUT
10
44.0622
20
45.0690
30
0.0
11
54.1263
21
51.6046
31
0.0
0
ARC
8
CUT
10
43.1363
20
46.4947
30
0.0
40
1.7000
50
123.0000
51
-57.0000
0
ARC
8
CUT
10
53.2004
20
53.0304
30
0.0
40
1.7000
50
-57.0000
51
123.0000
0
LINE
8
CUT
10
32.0432
20
35.1174
30
0.0
11
42.1072
21
41.6531
31
0.0
0
LINE
8
CUT
10
45.1145
20
14.9893
30
0.0
11
55.1786
21
21.5250
31
0.0
0
ARC
8
CUT
10
38.5788
20
25.0534
30
0.0
40
12.0000
50
123.0000
51
-57.0000
0
ARC
8
CUT
10
48.6429
20
31.5891
30
0.0
40
12.0000
50
-57.0000
51
123.0000
0
ARC
8
SCRIBE
10
0.0000
20
0.0000
30
0.0
40
30.0000
50
0.0000
51
360.0000
0
ARC
8
SCRIBE
10
0.0000
20
0.0000
30
0.0
40
20.0000
50
0.0000
51
360.0000
0
TEXT
8
SCRIBE
10
-36.0000
20
56.0000
30
0.0
40
4.000
1
RIG PLATE 6mm  ring-drive
0
TEXT
8
SCRIBE
10
24.7054
20
-12.7265
30
0.0
40
2.200
1
P2.95 PRESS
0
TEXT
8
SCRIBE
10
-4.0000
20
31.4000
30
0.0
40
2.200
1
P2.95 PRESS
0
TEXT
8
SCRIBE
10
-32.7054
20
-12.7265
30
0.0
40
2.200
1
P2.95 PRESS
0
TEXT
8
SCRIBE
10
26.4659
20
1.8992
30
0.0
40
2.200
1
M3 x6 STANDOFF
0
TEXT
8
SCRIBE
10
31.6109
20
53.4712
30
0.0
40
2.500
1
NEMA17 - SLOTS TENSION
0
TEXT
8
SCRIBE
10
-24.0000
20
9.5000
30
0.0
40
2.500
1
ROD SLOT
0
ENDSEC
0
EOF
